<mxfile host="app.diagrams.net" modified="2024-03-22T18:51:21.325Z" agent="Mozilla/5.0 (Windows NT 10.0; Win64; x64) AppleWebKit/537.36 (KHTML, like Gecko) Chrome/123.0.0.0 Safari/537.36" etag="V82nmemep-Aw4oqXvwW2" version="24.0.8" type="github">
  <diagram name="Page-1" id="2YBvvXClWsGukQMizWep">
    <mxGraphModel dx="1050" dy="564" grid="1" gridSize="10" guides="1" tooltips="1" connect="1" arrows="1" fold="1" page="1" pageScale="1" pageWidth="850" pageHeight="1100" math="0" shadow="0">
      <root>
        <mxCell id="0" />
        <mxCell id="1" parent="0" />
        <mxCell id="4RwDIDFvu70Uzs6CMs1B-4" value="" style="edgeStyle=orthogonalEdgeStyle;rounded=0;orthogonalLoop=1;jettySize=auto;html=1;" edge="1" parent="1" source="4RwDIDFvu70Uzs6CMs1B-2" target="4RwDIDFvu70Uzs6CMs1B-3">
          <mxGeometry relative="1" as="geometry" />
        </mxCell>
        <mxCell id="4RwDIDFvu70Uzs6CMs1B-2" value="Raw ECG Signal" style="strokeWidth=2;html=1;shape=mxgraph.flowchart.database;whiteSpace=wrap;" vertex="1" parent="1">
          <mxGeometry x="70" y="310" width="60" height="100" as="geometry" />
        </mxCell>
        <mxCell id="4RwDIDFvu70Uzs6CMs1B-7" value="" style="edgeStyle=orthogonalEdgeStyle;rounded=0;orthogonalLoop=1;jettySize=auto;html=1;" edge="1" parent="1" source="4RwDIDFvu70Uzs6CMs1B-3" target="4RwDIDFvu70Uzs6CMs1B-6">
          <mxGeometry relative="1" as="geometry" />
        </mxCell>
        <mxCell id="4RwDIDFvu70Uzs6CMs1B-3" value="Data Preparation" style="rounded=1;whiteSpace=wrap;html=1;strokeWidth=2;" vertex="1" parent="1">
          <mxGeometry x="180" y="320" width="120" height="80" as="geometry" />
        </mxCell>
        <mxCell id="4RwDIDFvu70Uzs6CMs1B-5" value="" style="shape=image;verticalLabelPosition=bottom;labelBackgroundColor=default;verticalAlign=top;aspect=fixed;imageAspect=0;image=https://www.kaggle.com/static/images/site-logo.svg;" vertex="1" parent="1">
          <mxGeometry x="210" y="410" width="60" height="23.2" as="geometry" />
        </mxCell>
        <mxCell id="4RwDIDFvu70Uzs6CMs1B-9" value="" style="edgeStyle=orthogonalEdgeStyle;rounded=0;orthogonalLoop=1;jettySize=auto;html=1;" edge="1" parent="1" source="4RwDIDFvu70Uzs6CMs1B-6" target="4RwDIDFvu70Uzs6CMs1B-8">
          <mxGeometry relative="1" as="geometry" />
        </mxCell>
        <mxCell id="4RwDIDFvu70Uzs6CMs1B-6" value="Data Visualisation" style="whiteSpace=wrap;html=1;rounded=1;strokeWidth=2;" vertex="1" parent="1">
          <mxGeometry x="380" y="320" width="120" height="80" as="geometry" />
        </mxCell>
        <mxCell id="4RwDIDFvu70Uzs6CMs1B-33" style="edgeStyle=orthogonalEdgeStyle;rounded=0;orthogonalLoop=1;jettySize=auto;html=1;" edge="1" parent="1" source="4RwDIDFvu70Uzs6CMs1B-8" target="4RwDIDFvu70Uzs6CMs1B-10">
          <mxGeometry relative="1" as="geometry" />
        </mxCell>
        <mxCell id="4RwDIDFvu70Uzs6CMs1B-8" value="Data Pre-processing" style="rounded=1;whiteSpace=wrap;html=1;strokeWidth=2;" vertex="1" parent="1">
          <mxGeometry x="560" y="320" width="160" height="80" as="geometry" />
        </mxCell>
        <mxCell id="4RwDIDFvu70Uzs6CMs1B-10" value="Deep Leaning" style="rounded=1;whiteSpace=wrap;html=1;strokeWidth=2;textShadow=0;" vertex="1" parent="1">
          <mxGeometry x="800" y="320" width="160" height="80" as="geometry" />
        </mxCell>
        <mxCell id="4RwDIDFvu70Uzs6CMs1B-12" value="Customised Evaluation" style="rounded=1;whiteSpace=wrap;html=1;strokeWidth=2;textShadow=0;" vertex="1" parent="1">
          <mxGeometry x="1080" y="320" width="160" height="80" as="geometry" />
        </mxCell>
        <mxCell id="4RwDIDFvu70Uzs6CMs1B-31" value="dispatch" style="html=1;verticalAlign=bottom;endArrow=block;curved=0;rounded=0;entryX=0;entryY=0.25;entryDx=0;entryDy=0;exitX=1;exitY=0.25;exitDx=0;exitDy=0;" edge="1" parent="1" source="4RwDIDFvu70Uzs6CMs1B-10" target="4RwDIDFvu70Uzs6CMs1B-12">
          <mxGeometry relative="1" as="geometry">
            <mxPoint x="950" y="339.5" as="sourcePoint" />
            <mxPoint x="1060" y="339.5" as="targetPoint" />
          </mxGeometry>
        </mxCell>
        <mxCell id="4RwDIDFvu70Uzs6CMs1B-32" value="Feedback" style="html=1;verticalAlign=bottom;endArrow=open;dashed=1;endSize=8;curved=0;rounded=0;exitX=0;exitY=0.75;exitDx=0;exitDy=0;" edge="1" parent="1" source="4RwDIDFvu70Uzs6CMs1B-12">
          <mxGeometry relative="1" as="geometry">
            <mxPoint x="960" y="380" as="targetPoint" />
            <mxPoint x="1060" y="379.5" as="sourcePoint" />
            <mxPoint as="offset" />
          </mxGeometry>
        </mxCell>
        <mxCell id="4RwDIDFvu70Uzs6CMs1B-37" value="Training" style="shape=umlFrame;whiteSpace=wrap;html=1;pointerEvents=0;" vertex="1" parent="1">
          <mxGeometry x="760" y="240" width="520" height="240" as="geometry" />
        </mxCell>
        <mxCell id="4RwDIDFvu70Uzs6CMs1B-38" value="Fine-Tuning" style="shape=umlFrame;whiteSpace=wrap;html=1;pointerEvents=0;" vertex="1" parent="1">
          <mxGeometry x="1020" y="240" width="520" height="240" as="geometry" />
        </mxCell>
        <mxCell id="4RwDIDFvu70Uzs6CMs1B-44" value="" style="edgeStyle=orthogonalEdgeStyle;rounded=0;orthogonalLoop=1;jettySize=auto;html=1;" edge="1" parent="1" source="4RwDIDFvu70Uzs6CMs1B-39" target="4RwDIDFvu70Uzs6CMs1B-43">
          <mxGeometry relative="1" as="geometry" />
        </mxCell>
        <mxCell id="4RwDIDFvu70Uzs6CMs1B-39" value="Evaluation Fine-tuning" style="rounded=1;whiteSpace=wrap;html=1;strokeWidth=2;textShadow=0;" vertex="1" parent="1">
          <mxGeometry x="1360" y="320" width="160" height="80" as="geometry" />
        </mxCell>
        <mxCell id="4RwDIDFvu70Uzs6CMs1B-40" value="dispatch" style="html=1;verticalAlign=bottom;endArrow=block;curved=0;rounded=0;entryX=0;entryY=0.25;entryDx=0;entryDy=0;exitX=1;exitY=0.25;exitDx=0;exitDy=0;" edge="1" parent="1">
          <mxGeometry relative="1" as="geometry">
            <mxPoint x="1240" y="339.5" as="sourcePoint" />
            <mxPoint x="1360" y="339.5" as="targetPoint" />
          </mxGeometry>
        </mxCell>
        <mxCell id="4RwDIDFvu70Uzs6CMs1B-41" value="Feedback" style="html=1;verticalAlign=bottom;endArrow=open;dashed=1;endSize=8;curved=0;rounded=0;exitX=0;exitY=0.75;exitDx=0;exitDy=0;" edge="1" parent="1">
          <mxGeometry relative="1" as="geometry">
            <mxPoint x="1240" y="379.5" as="targetPoint" />
            <mxPoint x="1360" y="379.5" as="sourcePoint" />
            <mxPoint as="offset" />
          </mxGeometry>
        </mxCell>
        <mxCell id="4RwDIDFvu70Uzs6CMs1B-43" value="Output" style="verticalLabelPosition=bottom;verticalAlign=top;html=1;strokeWidth=2;shape=mxgraph.arrows2.arrow;dy=0.6;dx=40;notch=0;" vertex="1" parent="1">
          <mxGeometry x="1570" y="320" width="100" height="80" as="geometry" />
        </mxCell>
      </root>
    </mxGraphModel>
  </diagram>
</mxfile>
